<svg xmlns="http://www.w3.org/2000/svg" width="1200" height="630" viewBox="0 0 1200 630">
  <defs>
    <linearGradient id="bg" x1="0" y1="0" x2="1" y2="1">
      <stop stop-color="#07151c"/>
      <stop offset="1" stop-color="#030709"/>
    </linearGradient>
    <radialGradient id="glow">
      <stop stop-color="#00d5ee" stop-opacity=".22"/>
      <stop offset="1" stop-color="#00d5ee" stop-opacity="0"/>
    </radialGradient>
    <linearGradient id="accent" x1="0" y1="0" x2="1" y2="0">
      <stop stop-color="#5cecff"/>
      <stop offset="1" stop-color="#e7bd61"/>
    </linearGradient>
  </defs>
  <rect width="1200" height="630" fill="url(#bg)"/>
  <circle cx="1040" cy="60" r="420" fill="url(#glow)"/>
  <g opacity=".1" stroke="#5cecff">
    <path d="M0 90h1200M0 180h1200M0 270h1200M0 360h1200M0 450h1200M0 540h1200"/>
    <path d="M100 0v630M200 0v630M300 0v630M400 0v630M500 0v630M600 0v630M700 0v630M800 0v630M900 0v630M1000 0v630M1100 0v630"/>
  </g>
  <text x="82" y="105" fill="#f2f7f9" font-family="Arial, sans-serif" font-size="34" font-weight="800">TAJ<tspan fill="#5cecff">CODE</tspan> LAB</text>
  <text x="82" y="275" fill="#f2f7f9" font-family="Arial, sans-serif" font-size="76" font-weight="800">Технологии,</text>
  <text x="82" y="365" fill="url(#accent)" font-family="Arial, sans-serif" font-size="76" font-weight="800">которые двигают бизнес</text>
  <text x="82" y="440" fill="#f2f7f9" font-family="Arial, sans-serif" font-size="76" font-weight="800">вперёд</text>
  <text x="84" y="520" fill="#8ca3ae" font-family="Arial, sans-serif" font-size="28">Сайты · приложения · CRM · Telegram-боты</text>
  <rect x="82" y="564" width="238" height="4" rx="2" fill="#5cecff"/>
</svg>
